<svg xmlns="http://www.w3.org/2000/svg" width="66" height="76" viewBox="0 0 66 76">
    <g fill="none" fill-rule="nonzero">
        <path fill="#F8A127" d="M1.062 11.104v58.411c0-2.688 1.903-4.867 4.25-4.867h38.245V11.104H1.062z"/>
        <path fill="#E16654" d="M9.862 11.104h-8.8v58.411c0-2.688.426-4.867.952-4.867h7.848V11.104z"/>
        <path fill="#D6D4D5" d="M13.81 15.972h25.498v14.603H13.81z"/>
        <path fill="#E3E3E3" d="M13.81 15.972h22.31v14.603H13.81z"/>
        <path fill="#8974AC" d="M30.809 11.104V1.37l4.25 4.868 4.249-4.868v9.735z"/>
        <path fill="#F8A127" d="M24.435 50.045h40.37l-4.25 4.868 4.25 4.867h-40.37l4.25-4.867z"/>
        <path fill="#00B8CB" d="M61.618 50.045H24.435l4.25 4.868-4.25 4.867h37.183l-4.25-4.867z"/>
        <path fill="#F8A127" d="M24.435 35.442h40.37l-4.25 4.868 4.25 4.867h-40.37l4.25-4.867z"/>
        <path fill="#00B8CB" d="M61.618 35.442H24.435l4.25 4.868-4.25 4.867h37.183l-4.25-4.867z"/>
        <path fill="#FDFDFD" d="M43.557 74.383H5.312c-2.347 0-4.25-2.18-4.25-4.868s1.903-4.867 4.25-4.867h38.245l-2.436 2.79c-.48.551-.75 1.299-.75 2.077 0 .78.27 1.526.75 2.078l2.436 2.79z"/>
        <path fill="#000" d="M43.557 75.6H5.312C2.382 75.6 0 72.87 0 69.515s2.383-6.084 5.312-6.084h38.245c.43 0 .817.296.982.75.165.456.073.98-.23 1.327l-2.437 2.79c-.283.327-.44.758-.44 1.217 0 .46.157.891.441 1.217l2.435 2.79c.304.349.396.872.231 1.327-.165.455-.552.751-.982.751zM5.312 65.865c-1.757 0-3.187 1.638-3.187 3.65 0 2.013 1.43 3.651 3.187 3.651h35.68l-.622-.713c-.685-.786-1.062-1.829-1.062-2.938 0-1.108.377-2.152 1.062-2.937l.623-.713H5.312z"/>
        <path fill="#000" d="M42.495 59.78h2.125v4.868h-2.125zM2.125 69.515H0v-58.41c0-.674.476-1.218 1.062-1.218h42.495c.587 0 1.063.544 1.063 1.217v24.338h-2.125v-23.12H2.125v57.193zM7.437 68.299H40.37v2.433H7.437z"/>
        <path fill="#000" d="M8.499 11.104h2.125v53.544H8.499zM40.37 11.104h-2.125V4.307l-2.436 2.79c-.415.476-1.086.476-1.502 0l-2.436-2.79v6.797h-2.125V1.37c0-.492.26-.937.656-1.124.397-.191.854-.086 1.158.264l3.498 4.007L38.557.509c.304-.35.758-.455 1.158-.264.396.187.655.632.655 1.124v9.735zM64.805 46.394h-40.37c-.43 0-.817-.295-.982-.75a1.349 1.349 0 0 1 .23-1.327l3.499-4.007-3.498-4.007a1.349 1.349 0 0 1-.231-1.327c.165-.455.552-.75.982-.75h40.37c.429 0 .817.295.981.75.165.455.074.979-.23 1.327l-3.498 4.007 3.498 4.007c.304.348.395.871.23 1.327-.164.455-.552.75-.981.75zm-37.806-2.433H62.24l-2.436-2.79a1.344 1.344 0 0 1 0-1.721l2.436-2.79H27l2.435 2.79a1.344 1.344 0 0 1 0 1.72L27 43.96zM64.805 60.997h-40.37c-.43 0-.817-.296-.982-.75a1.349 1.349 0 0 1 .23-1.327l3.499-4.007-3.498-4.008a1.349 1.349 0 0 1-.231-1.326c.165-.455.552-.75.982-.75h40.37c.429 0 .817.295.981.75.165.455.074.978-.23 1.326l-3.498 4.008 3.498 4.007c.304.348.395.871.23 1.326-.164.455-.552.751-.981.751zm-37.806-2.434H62.24l-2.436-2.79a1.344 1.344 0 0 1 0-1.72l2.436-2.791H27l2.435 2.79a1.344 1.344 0 0 1 0 1.721L27 58.563z"/>
        <path fill="#000" d="M42.495 45.177h2.125v4.868h-2.125zM39.308 31.792H13.81c-.587 0-1.063-.544-1.063-1.217V15.972c0-.673.476-1.217 1.063-1.217h25.497c.586 0 1.062.544 1.062 1.217v14.603c0 .673-.476 1.217-1.062 1.217zm-24.435-2.434h23.372v-12.17H14.873v12.17z"/>
        <path fill="#000" d="M16.998 19.623h19.123v2.433H16.998zM16.998 24.49h19.123v2.434H16.998z"/>
    </g>
</svg>
