<?xml version="1.0" encoding="UTF-8"?>
<svg width="41px" height="33px" viewBox="0 0 41 33" version="1.1" xmlns="http://www.w3.org/2000/svg" xmlns:xlink="http://www.w3.org/1999/xlink">
    <!-- Generator: Sketch 52.2 (67145) - http://www.bohemiancoding.com/sketch -->
    <title>Group 2</title>
    <desc>Created with Sketch.</desc>
    <defs>
        <polygon id="path-1" points="7.3885011e-06 -5.68434189e-14 38.3345914 -5.68434189e-14 38.3345914 30.3861563 7.3885011e-06 30.3861563"></polygon>
    </defs>
    <g id="Symbols" stroke="none" stroke-width="1" fill="none" fill-rule="evenodd">
        <g id="heder" transform="translate(-1130.000000, -18.000000)">
            <g id="Group-2">
                <g transform="translate(1130.000000, 19.000000)">
                    <g id="Group-5-Copy">
                        <g id="Group-4">
                            <g id="Group-3" transform="translate(0.000000, 1.600000)">
                                <mask id="mask-2" fill="white">
                                    <use xlink:href="#path-1"></use>
                                </mask>
                                <g id="Clip-2"></g>
                                <path d="M0.136430239,14.5648458 C-0.219183158,-0.544702523 -0.219183158,0.0597430154 4.52679962,0.361123938 L20.4259613,0.361123938 C23.1549336,0.361123938 30.6298886,0.361123938 33.4775518,0.0597430154 C37.0369011,0.0597430154 37.7491384,-1.14952222 38.1047518,7.31112517 C38.2235345,10.030943 39.1727862,30.5803141 36.0881087,30.2768753 C27.663902,29.3711424 11.4814255,30.2354378 5.1198867,30.2768753 C1.51138909,30.3003535 0.84866756,31.7875215 0.373720191,23.0253996 C0.255213014,21.2115018 0.136430239,18.1906772 0.136430239,14.5648458" id="Fill-1" fill="#F3EDFD" mask="url(#mask-2)"></path>
                            </g>
                            <path d="M1.73665558,14.5714795 C1.38043553,-0.544929852 1.38043553,0.0597901578 6.13451471,0.361307934 L22.0607996,0.361307934 C24.7944273,0.361307934 32.2821343,0.361307934 35.1346554,0.0597901578 C38.7000767,0.0597901578 39.4135291,-1.15002419 39.7697492,7.31446508 C39.8887346,10.035518 40.8396056,30.5942203 37.7496658,30.2906437 C29.3110878,29.3844995 13.1010048,30.2491874 6.72861357,30.2906437 C3.11396004,30.3141325 2.45010794,31.8019758 1.97435034,23.0358752 C1.85564099,21.2211537 1.73665558,18.1989574 1.73665558,14.5714795 Z" id="Stroke-1" stroke="#8974AC" stroke-width="0.8"></path>
                        </g>
                    </g>
                    <g id="icons8-shopping-cart" transform="translate(10.400000, 7.600000)" fill="#8974AC" fill-rule="nonzero">
                        <g id="Icon">
                            <path d="M0.8,3.40906356e-05 C0.3581722,3.40906356e-05 0,0.358206291 0,0.800034091 C0,1.24186189 0.3581722,1.60003409 0.8,1.60003409 L2.576,1.60003409 L4.6752,10.0000341 C4.8536,10.7120341 5.4912,11.2000341 6.2248,11.2000341 L15.4008,11.2000341 C16.1232,11.2000341 16.7368,10.7200341 16.9264,10.0240341 L19,2.40003409 L5.6,2.40003409 L6,4.00003409 L16.9248,4.00003409 L15.4,9.60003409 L6.224,9.60003409 L4.1256,1.20003409 C3.94720837,0.490803384 3.3073064,-0.00473247278 2.576,3.40906356e-05 L0.8,3.40906356e-05 Z M14.4,11.2000341 C13.084,11.2000341 12,12.2840341 12,13.6000341 C12,14.9160341 13.084,16.0000341 14.4,16.0000341 C15.716,16.0000341 16.8,14.9160341 16.8,13.6000341 C16.8,12.2840341 15.716,11.2000341 14.4,11.2000341 Z M7.2,11.2000341 C5.884,11.2000341 4.8,12.2840341 4.8,13.6000341 C4.8,14.9160341 5.884,16.0000341 7.2,16.0000341 C8.516,16.0000341 9.6,14.9160341 9.6,13.6000341 C9.6,12.2840341 8.516,11.2000341 7.2,11.2000341 Z M7.2,12.8000341 C7.6512,12.8000341 8,13.1488341 8,13.6000341 C8,14.0512341 7.6512,14.4000341 7.2,14.4000341 C6.7488,14.4000341 6.4,14.0512341 6.4,13.6000341 C6.4,13.1488341 6.7488,12.8000341 7.2,12.8000341 Z M14.4,12.8000341 C14.8512,12.8000341 15.2,13.1488341 15.2,13.6000341 C15.2,14.0512341 14.8512,14.4000341 14.4,14.4000341 C13.9488,14.4000341 13.6,14.0512341 13.6,13.6000341 C13.6,13.1488341 13.9488,12.8000341 14.4,12.8000341 Z" id="Icon-Shape"></path>
                        </g>
                    </g>
                </g>
            </g>
        </g>
    </g>
</svg>