<?xml version="1.0" encoding="UTF-8"?>
<svg width="41px" height="33px" viewBox="0 0 41 33" version="1.1" xmlns="http://www.w3.org/2000/svg" xmlns:xlink="http://www.w3.org/1999/xlink">
    <!-- Generator: Sketch 52.2 (67145) - http://www.bohemiancoding.com/sketch -->
    <title>Group 2</title>
    <desc>Created with Sketch.</desc>
    <defs>
        <polygon id="path-1" points="7.3885011e-06 -5.68434189e-14 38.3345914 -5.68434189e-14 38.3345914 30.3861563 7.3885011e-06 30.3861563"></polygon>
    </defs>
    <g id="Symbols" stroke="none" stroke-width="1" fill="none" fill-rule="evenodd">
        <g id="close" transform="translate(0.000000, 1.000000)">
            <g id="Group-2">
                <g id="Group-5-Copy">
                    <g id="Group-4">
                        <g id="Group-3" transform="translate(0.000000, 1.600000)">
                            <mask id="mask-2" fill="white">
                                <use xlink:href="#path-1"></use>
                            </mask>
                            <g id="Clip-2"></g>
                            <path d="M0.136430239,14.5648458 C-0.219183158,-0.544702523 -0.219183158,0.0597430154 4.52679962,0.361123938 L20.4259613,0.361123938 C23.1549336,0.361123938 30.6298886,0.361123938 33.4775518,0.0597430154 C37.0369011,0.0597430154 37.7491384,-1.14952222 38.1047518,7.31112517 C38.2235345,10.030943 39.1727862,30.5803141 36.0881087,30.2768753 C27.663902,29.3711424 11.4814255,30.2354378 5.1198867,30.2768753 C1.51138909,30.3003535 0.84866756,31.7875215 0.373720191,23.0253996 C0.255213014,21.2115018 0.136430239,18.1906772 0.136430239,14.5648458" id="Fill-1" fill="#FEDFDA" mask="url(#mask-2)"></path>
                        </g>
                        <path d="M1.73665558,14.5714795 C1.38043553,-0.544929852 1.38043553,0.0597901578 6.13451471,0.361307934 L22.0607996,0.361307934 C24.7944273,0.361307934 32.2821343,0.361307934 35.1346554,0.0597901578 C38.7000767,0.0597901578 39.4135291,-1.15002419 39.7697492,7.31446508 C39.8887346,10.035518 40.8396056,30.5942203 37.7496658,30.2906437 C29.3110878,29.3844995 13.1010048,30.2491874 6.72861357,30.2906437 C3.11396004,30.3141325 2.45010794,31.8019758 1.97435034,23.0358752 C1.85564099,21.2211537 1.73665558,18.1989574 1.73665558,14.5714795 Z" id="Stroke-1" stroke="#E16654" stroke-width="0.8"></path>
                        <g id="ic-round-close" transform="translate(9.000000, 3.000000)" fill-rule="nonzero">
                            <g id="Icon" transform="translate(5.000000, 5.000000)" fill="#E16654">
                                <path d="M13.3,0.71 C13.1131554,0.522771911 12.8595095,0.417555968 12.595,0.417555968 C12.3304905,0.417555968 12.0768446,0.522771911 11.89,0.71 L7,5.59 L2.11,0.7 C1.85812776,0.448127753 1.49101597,0.349760441 1.14695208,0.441952079 C0.802888201,0.534143716 0.534143716,0.802888201 0.441952079,1.14695208 C0.349760441,1.49101597 0.448127753,1.85812776 0.7,2.11 L5.59,7 L0.7,11.89 C0.448127759,12.1418722 0.349760452,12.508984 0.44195209,12.8530479 C0.534143729,13.1971118 0.802888211,13.4658563 1.14695209,13.5580479 C1.49101597,13.6502395 1.85812776,13.5518722 2.11,13.3 L7,8.41 L11.89,13.3 C12.1418722,13.5518722 12.508984,13.6502395 12.8530479,13.5580479 C13.1971118,13.4658563 13.4658563,13.1971118 13.5580479,12.8530479 C13.6502395,12.508984 13.5518722,12.1418722 13.3,11.89 L8.41,7 L13.3,2.11 C13.68,1.73 13.68,1.09 13.3,0.71 Z" id="Icon-Path"></path>
                            </g>
                            <rect id="ViewBox" x="0" y="0" width="24" height="24"></rect>
                        </g>
                    </g>
                </g>
            </g>
        </g>
    </g>
</svg>