<svg xmlns="http://www.w3.org/2000/svg" width="63" height="76" viewBox="0 0 63 76">
    <g fill="none" fill-rule="evenodd">
        <path fill="#00B8CB" fill-rule="nonzero" d="M1.667 73.821v-29.47h25.728v29.47z"/>
        <path fill="#E16654" fill-rule="nonzero" d="M13.492 11.905L37.4 1.04l9.356 27.386-23.909 10.716z"/>
        <path fill="#F8A127" fill-rule="nonzero" d="M30.513 65.337L37.14 36.91 61.958 44.5l-6.627 28.428z"/>
        <path fill="#1E0E10" fill-rule="nonzero" d="M21.288 38.844c.52 1.34 1.819 2.084 2.988 1.489l21.96-9.972c1.17-.596 1.819-2.084 1.3-3.424L38.828 1.635C38.31.295 37.01-.3 35.841.147l-22.09 9.972c-1.169.595-1.819 2.083-1.299 3.423l8.836 25.302zM36.75 3.124l8.446 24.557-21.44 9.675-8.445-24.558 21.44-9.675zM26.355 42.863H2.707c-1.3 0-2.34 1.19-2.34 2.679V72.63c0 1.489 1.04 2.68 2.34 2.68h23.648c1.3 0 2.34-1.191 2.34-2.68V45.542c0-1.488-1.04-2.68-2.34-2.68zm-.26 29.47H2.967V45.84h23.128v26.493zM61.308 42.714L38.44 35.719c-1.3-.298-2.47.446-2.86 1.935l-6.106 26.195c-.39 1.34.39 2.828 1.689 3.274l22.869 6.996c1.17.446 2.469-.447 2.859-1.935l5.977-26.196c.39-1.488-.39-2.827-1.56-3.274zm-6.886 28.28l-22.35-6.699 5.978-25.6 22.349 6.847-5.977 25.451z"/>
        <text fill="#010202" font-family="Aljazeera" font-size="18.432" transform="translate(.257)">
            <tspan x="9.952" y="62.2">ع</tspan>
        </text>
        <text fill="#010202" font-family="Aljazeera" font-size="18" transform="translate(.257)">
            <tspan x="24.619" y="23.32">ب</tspan>
        </text>
        <text fill="#010202" font-family="Aljazeera" font-size="16.128" transform="translate(.257)">
            <tspan x="38.867" y="58.76">ض</tspan>
        </text>
    </g>
</svg>
