<svg xmlns="http://www.w3.org/2000/svg" width="66" height="53" viewBox="0 0 66 53">
    <g fill="none" fill-rule="nonzero">
        <path fill="#8974AC" d="M37.363 51.608c0-2.78-1.968-5.035-4.396-5.035s-4.396 2.255-4.396 5.035H1.1v-5.035h24.176c1.099-2.517 3.296-5.035 7.692-5.035 4.396 0 6.593 2.518 7.692 5.035h24.176v5.035H37.363z"/>
        <path fill="#E16654" d="M1.099 46.573H9.89v5.035H1.1zM56.044 46.573h8.791v5.035h-8.791z"/>
        <path fill="#F8A127" d="M3.297 33.986v12.587h21.978c1.236-2.917 3.765-4.827 6.593-4.98 0 0-5.494-5.09-28.571-7.607zM34.066 41.594s5.494-5.09 28.571-7.608v12.587H40.66c-1.236-2.917-3.765-4.827-6.593-4.98z"/>
        <path fill="#F4F4E6" d="M3.297 40.28h14.285v2.517H3.297zM48.352 40.28h14.285v2.517H48.352zM43.956 40.28h2.198v2.517h-2.198z"/>
        <path fill="#00B8CB" d="M45.055 26.434V1.259H9.89v25.175h12.088l10.989 8.81v-8.81z"/>
        <g fill="#F4F4E6">
            <path d="M13.187 5.035h10.989v2.517h-10.99zM13.187 10.07h6.593v2.517h-6.593zM26.374 5.035h15.384v2.517H26.374zM13.187 15.105h18.681v2.517H13.187zM21.978 10.07h19.78v2.517h-19.78zM34.066 15.105h7.692v2.517h-7.692zM13.187 20.14h28.571v2.517H13.187z"/>
        </g>
        <path fill="#000" d="M64.835 45.315h-1.099V33.986a1.349 1.349 0 0 0-.358-.935 1.015 1.015 0 0 0-.845-.324c-20.348 2.22-27.273 6.461-28.808 7.602-.254-.013-.49-.05-.758-.05s-.504.037-.758.055c-1.539-1.14-8.462-5.381-28.808-7.602a1.014 1.014 0 0 0-.844.322c-.229.239-.36.577-.36.932v11.329H1.1c-.607 0-1.099.563-1.099 1.258v5.035c0 .696.492 1.26 1.099 1.26H28.57c.607 0 1.1-.564 1.1-1.26 0-2.085 1.475-3.776 3.296-3.776 1.82 0 3.297 1.69 3.297 3.776 0 .696.492 1.26 1.099 1.26h27.472c.607 0 1.1-.564 1.1-1.26v-5.035c0-.695-.493-1.258-1.1-1.258zM8.791 50.35H2.198v-2.518H8.79v2.518zm-4.395-5.035v-2.518h13.186V40.28H4.396v-4.91c13.931 1.62 21.09 4.195 24.382 5.79-1.748.822-3.21 2.282-4.156 4.155H4.396zm50.55 5.035H38.351c-.52-2.934-2.772-5.042-5.385-5.042s-4.865 2.108-5.385 5.042H10.99v-2.518h14.286c.416 0 .797-.27.983-.696 1.256-2.879 3.513-4.339 6.709-4.339 3.196 0 5.453 1.46 6.703 4.34.187.428.57.698.99.695h14.285v2.518zm-13.634-5.035c-.952-1.882-2.424-3.347-4.185-4.163 3.247-1.587 10.351-4.145 24.411-5.781v4.909H48.352v2.517h13.186v2.518H41.312zm22.424 5.035h-6.593v-2.518h6.593v2.518z"/>
        <path fill="#000" d="M43.956 40.28h2.198v2.517h-2.198zM9.89 0c-.607 0-1.099.564-1.099 1.259v25.175c0 .695.492 1.258 1.1 1.258h11.74l10.706 8.584c.185.148.405.227.63.227.607 0 1.099-.563 1.099-1.258v-7.553h10.989c.607 0 1.099-.563 1.099-1.258V1.259c0-.695-.492-1.259-1.1-1.259H9.89zm34.066 25.175H32.967c-.607 0-1.099.563-1.099 1.259v6.394l-9.26-7.427a1.005 1.005 0 0 0-.63-.226H10.989V2.517h32.967v22.658z"/>
        <path fill="#000" d="M13.187 5.035h10.989v2.517h-10.99zM13.187 10.07h6.593v2.517h-6.593zM26.374 5.035h15.384v2.517H26.374zM13.187 15.105h18.681v2.517H13.187zM21.978 10.07h19.78v2.517h-19.78zM34.066 15.105h7.692v2.517h-7.692zM13.187 20.14h28.571v2.517H13.187z"/>
    </g>
</svg>
