<?xml version="1.0" encoding="UTF-8"?>
<svg width="41px" height="33px" viewBox="0 0 41 33" version="1.1" xmlns="http://www.w3.org/2000/svg" xmlns:xlink="http://www.w3.org/1999/xlink">
    <!-- Generator: Sketch 52.2 (67145) - http://www.bohemiancoding.com/sketch -->
    <title>Group 2</title>
    <desc>Created with Sketch.</desc>
    <defs>
        <polygon id="path-1" points="7.3885011e-06 -5.68434189e-14 38.3345914 -5.68434189e-14 38.3345914 30.3861563 7.3885011e-06 30.3861563"></polygon>
    </defs>
    <g id="Symbols" stroke="none" stroke-width="1" fill="none" fill-rule="evenodd">
        <g id="heder" transform="translate(-1190.000000, -18.000000)">
            <g id="Group-2">
                <g transform="translate(1190.000000, 19.000000)">
                    <g id="Group-5-Copy">
                        <g id="Group-4">
                            <g id="Group-3" transform="translate(0.000000, 1.600000)">
                                <mask id="mask-2" fill="white">
                                    <use xlink:href="#path-1"></use>
                                </mask>
                                <g id="Clip-2"></g>
                                <path d="M0.136430239,14.5648458 C-0.219183158,-0.544702523 -0.219183158,0.0597430154 4.52679962,0.361123938 L20.4259613,0.361123938 C23.1549336,0.361123938 30.6298886,0.361123938 33.4775518,0.0597430154 C37.0369011,0.0597430154 37.7491384,-1.14952222 38.1047518,7.31112517 C38.2235345,10.030943 39.1727862,30.5803141 36.0881087,30.2768753 C27.663902,29.3711424 11.4814255,30.2354378 5.1198867,30.2768753 C1.51138909,30.3003535 0.84866756,31.7875215 0.373720191,23.0253996 C0.255213014,21.2115018 0.136430239,18.1906772 0.136430239,14.5648458" id="Fill-1" fill="#E0F5F7" mask="url(#mask-2)"></path>
                            </g>
                            <g id="boy" transform="translate(11.000000, 4.000000)" fill-rule="nonzero">
                                <path d="M17.9922938,23.7868875 L17.9514563,23.4192375 C17.9353125,23.273775 17.8043063,23.1689812 17.6589,23.185125 L17.6360063,23.1876562 L17.2407375,20.0256187 C17.1547313,19.3377937 16.6814438,18.7605 16.0238813,18.5412375 L13.1129438,17.570925 C13.0545,17.7027187 12.9897563,17.8313062 12.9194438,17.9564625 L12.3154313,17.7551437 C11.9478938,17.6326312 11.7000563,17.2887187 11.7000563,16.901325 L11.7000563,15.4499625 L13.6384875,14.6422687 C14.6446313,14.2230937 15.3,13.2400125 15.3,12.15 L15.3,11.7 C16.0455938,11.7 16.65,11.0955937 16.65,10.35 C16.65,9.60440625 16.0455938,9 15.3,9 L15.3,8.1 C15.3,6.85738125 14.2926188,5.85 13.05,5.85 L4.95,5.85 C3.707325,5.85 2.7,6.85738125 2.7,8.1 L2.7,9 C1.95440625,9 1.35,9.60440625 1.35,10.35 C1.35,11.0955937 1.95440625,11.7 2.7,11.7 L2.7,12.15 C2.7,13.2399562 3.35536875,14.2230375 4.3615125,14.642325 L6.3,15.450075 L6.3,16.9013812 C6.3,17.288775 6.05210625,17.6326875 5.684625,17.7552 L5.0806125,17.9565187 C5.0103,17.8313625 4.94555625,17.7028312 4.8871125,17.5709812 L1.976175,18.5412937 C1.31855625,18.7605 0.84526875,19.33785 0.75931875,20.025675 L0.36405,23.1877125 L0.34115625,23.1851812 C0.19575,23.1690375 0.06474375,23.2738312 0.0486,23.4192937 L0.0077625,23.7869437 C-0.00838125,23.93235 0.0964125,24.0633562 0.24181875,24.0795 L0.90005625,24.152625 L0.90005625,25.2000562 C0.90005625,25.6971375 1.30303125,26.1000562 1.80005625,26.1000562 L4.05005625,26.1000562 L13.9500563,26.1000562 L16.2000563,26.1000562 C16.6971375,26.1000562 17.1000563,25.6971375 17.1000563,25.2000562 L17.1000563,24.152625 L17.7582938,24.0795 C17.9036438,24.0633 18.0084938,23.9322937 17.9922938,23.7868875 Z" id="Path" fill="#F6B47B"></path>
                                <path d="M15.2988187,3.16175625 C15.2988187,3.1577625 15.3,3.15405 15.3,3.15005625 C15.3,1.9074375 14.2926188,0.90005625 13.05,0.90005625 C12.7001812,0.90005625 12.3731437,0.9867375 12.0778875,1.1291625 C11.7071438,0.71533125 11.1743437,0.45 10.575,0.45 C10.2609563,0.45 9.967275,0.52756875 9.702,0.65514375 C9.46558125,0.26409375 9.0403875,0 8.55,0 C8.00971875,0 7.54711875,0.3195 7.33134375,0.77799375 C7.03895625,0.57268125 6.68446875,0.45 6.3,0.45 C5.546475,0.45 4.902975,0.91389375 4.63471875,1.57095 C4.47710625,1.43510625 4.2744375,1.35 4.05,1.35 C3.552975,1.35 3.15,1.75291875 3.15,2.25 C3.15,2.25 0.9,2.23126875 0.9,4.95 C0.9,6.2170875 1.8,9.9 1.8,9.9 L16.2,9.9 C16.2,9.9 16.65,7.81875 16.65,4.95 C16.65,4.1704875 15.9256687,3.55168125 15.2988187,3.16175625 Z" id="Path" fill="#734A3E"></path>
                                <path d="M8.28545625,7.1733375 C7.16900625,7.040925 6.3,6.10205625 6.3,4.95 C6.3,3.7918125 7.1784,2.849175 8.30345625,2.7248625 C8.175375,2.44209375 8.1,2.13058125 8.1,1.8 C8.1,1.0945125 8.42934375,0.47221875 8.9384625,0.06204375 C8.81510625,0.0243 8.68606875,0 8.55,0 C8.00971875,0 7.54711875,0.3195 7.33134375,0.77799375 C7.03895625,0.57268125 6.68446875,0.45 6.3,0.45 C5.546475,0.45 4.902975,0.91389375 4.63471875,1.57095 C4.47710625,1.43510625 4.2744375,1.35 4.05,1.35 C3.552975,1.35 3.15,1.75291875 3.15,2.25 C3.15,2.25 0.9,2.23126875 0.9,4.95 C0.9,6.2170875 1.8,9.9 1.8,9.9 L8.26875,9.9 L8.28545625,7.1733375 Z" id="Path" fill="#5E342E"></path>
                                <path d="M11.7,15.4125562 L6.3,15.4125562 L6.3,16.9013813 C6.3,17.225325 6.1207875,17.510625 5.84904375,17.6697 C9.62308125,18.3302437 11.7,15.4125562 11.7,15.4125562 Z" id="Path" fill="#E2A071"></path>
                                <path d="M15.3,9 L15.3,8.1 C15.3,6.85738125 14.2926187,5.85 13.05,5.85 L4.95,5.85 C3.707325,5.85 2.7,6.85738125 2.7,8.1 L2.7,9 C1.95440625,9 1.35,9.60440625 1.35,10.35 C1.35,11.0955937 1.95440625,11.7 2.7,11.7 L2.7,12.15 C2.7,13.2399562 3.35536875,14.2230375 4.3615125,14.642325 L7.26913125,15.8538375 C7.81756875,16.0823812 8.40583125,16.2 8.99994375,16.2 C9.59405625,16.2 10.1822625,16.0823812 10.7307,15.8538375 L13.6384875,14.6422688 C14.6446312,14.2230937 15.3,13.2400125 15.3,12.15 L15.3,11.7 C16.0455938,11.7 16.65,11.0955937 16.65,10.35 C16.65,9.60440625 16.0455938,9 15.3,9 Z" id="Path" fill="#FDC88E"></path>
                                <path d="M5.85,10.8 C5.6025,10.8 5.4,10.5975 5.4,10.35 L5.4,9.9 C5.4,9.6525 5.6025,9.45 5.85,9.45 C6.0975,9.45 6.3,9.6525 6.3,9.9 L6.3,10.35 C6.3,10.5975 6.0975,10.8 5.85,10.8 Z" id="Path" fill="#623F33"></path>
                                <path d="M12.15,10.8 C11.9025,10.8 11.7,10.5975 11.7,10.35 L11.7,9.9 C11.7,9.6525 11.9025,9.45 12.15,9.45 C12.3975,9.45 12.6,9.6525 12.6,9.9 L12.6,10.35 C12.6,10.5975 12.3975,10.8 12.15,10.8 Z" id="Path" fill="#623F33"></path>
                                <path d="M9,13.9623187 C8.19995625,13.9623187 7.45160625,13.7654437 6.946875,13.4220375 C6.74145,13.2823125 6.6880125,13.0023562 6.82801875,12.7969313 C6.96751875,12.5917313 7.2477,12.5382937 7.453125,12.678075 C7.80688125,12.9186562 8.3851875,13.062375 9,13.062375 C9.6148125,13.062375 10.1931188,12.9186562 10.546875,12.678075 C10.75275,12.5379 11.0322563,12.5915063 11.1719813,12.7969313 C11.3119313,13.0023562 11.25855,13.2823125 11.053125,13.4220375 C10.54845,13.7654437 9.80004375,13.9623187 9,13.9623187 Z" id="Path" fill="#E2A071"></path>
                                <path d="M5.062275,13.7094188 C4.6976625,13.3184813 4.50005625,12.8026125 4.50005625,12.2680125 L4.50005625,5.8953375 C3.4731,6.10385625 2.70005625,7.01150625 2.70005625,8.1 L2.70005625,9 C1.9544625,9 1.35005625,9.60440625 1.35005625,10.35 C1.35005625,11.0955937 1.9544625,11.7 2.70005625,11.7 L2.70005625,12.15 C2.70005625,13.2400125 3.355425,14.2230937 4.36156875,14.642325 L7.26913125,15.8538375 C7.41144375,15.913125 7.55668125,15.9642 7.703775,16.0084687 C6.41874375,15.0684187 5.56340625,14.2467187 5.062275,13.7094188 Z" id="Path" fill="#F6B47B"></path>
                                <path d="M17.2407375,20.025675 C17.1547313,19.33785 16.6814437,18.7605563 16.0238813,18.5412937 L13.1129438,17.5709812 L10.35,19.35 L9.45,20.25 C9.2671875,20.25 8.76560625,20.25 8.55,20.25 L7.65,19.35 L4.88705625,17.570925 L1.97611875,18.5412375 C1.3185,18.7604438 0.8452125,19.3377937 0.7592625,20.0256187 L0.33125625,23.4496688 L4.04994375,23.85 L4.04994375,26.1 L13.9499438,26.1 L13.9499438,23.85 L17.7186937,23.85 L17.2407375,20.025675 Z" id="Path" fill="#43A0C5"></path>
                                <path d="M4.05,24.18975 L4.05,23.1712875 C4.05,22.7383313 3.8939625,22.3199438 3.61051875,21.9926813 L1.13445,19.13445 C0.93465,19.3874063 0.8008875,19.6930125 0.75931875,20.0256188 L0.28929375,23.7857625 C1.00501875,23.8287375 2.90874375,24.0517687 4.05,24.18975 Z" id="Path" fill="#2C8CB3"></path>
                                <path d="M4.05,23.5972687 L0.3411,23.1851812 C0.1956375,23.1690375 0.0646875,23.2738312 0.0484875,23.4192375 L0.00765,23.7868875 C-0.00849375,23.9322937 0.0963,24.0633 0.24170625,24.0794437 L4.05,24.5026125 L4.05,23.5972687 Z" id="Path" fill="#1179A2"></path>
                                <path d="M13.95,24.18975 L13.95,23.1712875 C13.95,22.7383313 14.1060375,22.3199438 14.3894812,21.9926813 L16.86555,19.13445 C17.06535,19.3874063 17.1991125,19.6930125 17.2406812,20.0256188 L17.7107062,23.7857625 C16.9950375,23.8287375 15.0912562,24.0517687 13.95,24.18975 Z" id="Path" fill="#2C8CB3"></path>
                                <path d="M13.95,23.5972687 L17.6589,23.1851812 C17.8043625,23.1690375 17.9353125,23.2738312 17.9515125,23.4192375 L17.99235,23.7868875 C18.0084937,23.9322937 17.9037,24.0633 17.7582938,24.0794437 L13.95,24.5026125 L13.95,23.5972687 Z" id="Path" fill="#1179A2"></path>
                                <path d="M6.0996375,17.0244562 L7.65,19.35 L6.3,21.15 L4.5,17.55 L5.4756,16.8996375 C5.682375,16.7617687 5.96176875,16.817625 6.0996375,17.0244562 Z" id="Path" fill="#2C8CB3"></path>
                                <path d="M11.9004187,17.0244562 L10.35,19.35 L11.7,21.15 L13.5,17.55 L12.5244,16.8996375 C12.317625,16.7617687 12.0382875,16.817625 11.9004187,17.0244562 Z" id="Path" fill="#2C8CB3"></path>
                                <path d="M9,23.85 C8.7514875,23.85 8.55,23.6485125 8.55,23.4 L8.55,20.25 L9.45,20.25 L9.45,23.4 C9.45,23.6485687 9.24856875,23.85 9,23.85 Z" id="Path" fill="#2C8CB3"></path>
                                <path d="M14.625,4.05 C14.370975,4.05 14.1345,4.11575625 13.9220437,4.222575 C13.78395,3.11236875 12.8476125,2.25 11.7,2.25 C10.912725,2.25 10.2221438,2.65584375 9.82006875,3.26818125 C9.6363,3.19303125 9.43588125,3.15 9.225,3.15 C9.01411875,3.15 8.8137,3.19303125 8.62993125,3.26818125 C8.2279125,2.65584375 7.537275,2.25 6.75,2.25 C5.50738125,2.25 4.5,3.25738125 4.5,4.5 C4.5,5.74261875 5.50738125,6.75 6.75,6.75 C7.39125,6.75 7.96640625,6.47865 8.37624375,6.04828125 C8.62155,6.20595 8.91174375,6.3 9.225,6.3 C9.53825625,6.3 9.82850625,6.20595 10.0737562,6.04828125 C10.48365,6.47865 11.05875,6.75 11.7,6.75 C12.2608125,6.75 12.7673438,6.537375 13.1613187,6.1979625 C13.390875,6.78369375 13.9579312,7.2 14.625,7.2 C15.49485,7.2 16.2,6.49485 16.2,5.625 C16.2,4.75515 15.49485,4.05 14.625,4.05 Z" id="Path" fill="#734A3E"></path>
                                <circle id="Oval" fill="#5E342E" cx="4.89375" cy="4.66880625" r="2.1375"></circle>
                            </g>
                            <path d="M1.73665558,14.5714795 C1.38043553,-0.544929852 1.38043553,0.0597901578 6.13451471,0.361307934 L22.0607996,0.361307934 C24.7944273,0.361307934 32.2821343,0.361307934 35.1346554,0.0597901578 C38.7000767,0.0597901578 39.4135291,-1.15002419 39.7697492,7.31446508 C39.8887346,10.035518 40.8396056,30.5942203 37.7496658,30.2906437 C29.3110878,29.3844995 13.1010048,30.2491874 6.72861357,30.2906437 C3.11396004,30.3141325 2.45010794,31.8019758 1.97435034,23.0358752 C1.85564099,21.2211537 1.73665558,18.1989574 1.73665558,14.5714795 Z" id="Stroke-1" stroke="#00B8CB" stroke-width="0.8"></path>
                        </g>
                    </g>
                </g>
            </g>
        </g>
    </g>
</svg>